<?xml version="1.0" encoding="utf-8"?>
<!-- Generator: Adobe Illustrator 21.0.0, SVG Export Plug-In . SVG Version: 6.00 Build 0)  -->
<svg version="1.1" id="图层_1" xmlns="http://www.w3.org/2000/svg" xmlns:xlink="http://www.w3.org/1999/xlink" x="0px" y="0px"
	 viewBox="0 0 50 50" style="enable-background:new 0 0 50 50;" xml:space="preserve">
<style type="text/css">
	.st0{fill:#C7C8CA;}
</style>
<title>homepage</title>
<desc>Created with Sketch.</desc>
<g>
	<g>
		<path class="st0" d="M48.4,22.6L25,4.5L1.6,22.6l1.8,2.5L6,23.1v20.4c0,0.9,0,2,0,2l13.7,0c0.9,0,1.3,0,1.3,0v-16h8v16
			c0,0,0.4,0,1.2,0h11.6c0.9,0,2.1,0,2.1,0V23.1l2.5,1.9L48.4,22.6z M41,42.5h-9v-16H18v16H9V20.8L25,8.5l16,12.3V42.5z"/>
	</g>
</g>
</svg>
