<?xml version="1.0" encoding="utf-8"?>
<!-- Generator: Adobe Illustrator 21.1.0, SVG Export Plug-In . SVG Version: 6.00 Build 0)  -->
<svg version="1.1" id="图层_1" xmlns="http://www.w3.org/2000/svg" xmlns:xlink="http://www.w3.org/1999/xlink" x="0px" y="0px"
	 viewBox="0 0 50 50" style="enable-background:new 0 0 50 50;" xml:space="preserve">
<style type="text/css">
	.st0{fill:#C7C8CA;}
</style>
<g>
	<g>
		<path class="st0" d="M2.5,4.5v36h9l3,6l11-6h23v-36H2.5z M45.5,37.5h-21l-8.6,4.6l-1.4-4.6h-9v-30h40V37.5z M26,24.5
			c1.4,0,2.5-1.1,2.5-2.5s-1.2-2.5-2.5-2.5c-1.4,0-2.5,1.1-2.5,2.5S24.6,24.5,26,24.5z M15,24.5c1.4,0,2.5-1.1,2.5-2.5
			s-1.2-2.5-2.5-2.5c-1.4,0-2.5,1.1-2.5,2.5S13.6,24.5,15,24.5z M36,24.5c1.4,0,2.5-1.1,2.5-2.5s-1.2-2.5-2.5-2.5
			c-1.4,0-2.5,1.1-2.5,2.5S34.6,24.5,36,24.5z"/>
	</g>
</g>
</svg>
