<?xml version="1.0" encoding="utf-8"?>
<!-- Generator: Adobe Illustrator 21.1.0, SVG Export Plug-In . SVG Version: 6.00 Build 0)  -->
<svg version="1.1" id="图层_1" xmlns="http://www.w3.org/2000/svg" xmlns:xlink="http://www.w3.org/1999/xlink" x="0px" y="0px"
	 viewBox="0 0 50 50" style="enable-background:new 0 0 50 50;" xml:space="preserve">
<style type="text/css">
	.st0{fill:#00A0FF;}
	.st1{fill:#FFFFFF;}
</style>
<path class="st0" d="M48.5,4.5h-46v36h9l3,6l11-6h23V4.5L48.5,4.5z"/>
<path class="st1" d="M26,19.5c-1.4,0-2.5,1.1-2.5,2.5s1.1,2.5,2.5,2.5s2.5-1.1,2.5-2.5S27.3,19.5,26,19.5L26,19.5z"/>
<path class="st1" d="M15,19.5c-1.4,0-2.5,1.1-2.5,2.5s1.1,2.5,2.5,2.5s2.5-1.1,2.5-2.5S16.3,19.5,15,19.5L15,19.5z"/>
<path class="st1" d="M36,19.5c-1.4,0-2.5,1.1-2.5,2.5s1.1,2.5,2.5,2.5s2.5-1.1,2.5-2.5S37.3,19.5,36,19.5L36,19.5z"/>
</svg>
