<?xml version="1.0" encoding="utf-8"?>
<!-- Generator: Adobe Illustrator 21.0.0, SVG Export Plug-In . SVG Version: 6.00 Build 0)  -->
<svg version="1.1" id="图层_1" xmlns="http://www.w3.org/2000/svg" xmlns:xlink="http://www.w3.org/1999/xlink" x="0px" y="0px"
	 viewBox="0 0 50 50" style="enable-background:new 0 0 50 50;" xml:space="preserve">
<style type="text/css">
	.st0{fill:#C7C8CA;}
</style>
<title>people</title>
<desc>Created with Sketch.</desc>
<g id="Page-1">
	<g id="people">
		<path class="st0" d="M24.5,7c4.7,0,8.5,3.8,8.5,8.5c0,4.7-3.8,8.5-8.5,8.5S16,20.2,16,15.5C16,10.8,19.8,7,24.5,7L24.5,7z
			 M24.5,27C30.8,27,36,21.8,36,15.5C36,9.2,30.8,4,24.5,4S13,9.2,13,15.5C13,21.8,18.2,27,24.5,27L24.5,27z M43,31l-7-5l-2,3l6,4
			l1,10H9l1-10l6-4l-2-3l-7,5L5,46l40,0L43,31z"/>
	</g>
</g>
</svg>
