<?xml version="1.0" encoding="utf-8"?>
<!-- Generator: Adobe Illustrator 21.0.0, SVG Export Plug-In . SVG Version: 6.00 Build 0)  -->
<svg version="1.1" id="图层_1" xmlns="http://www.w3.org/2000/svg" xmlns:xlink="http://www.w3.org/1999/xlink" x="0px" y="0px"
	 viewBox="0 0 50 50" style="enable-background:new 0 0 50 50;" xml:space="preserve">
<style type="text/css">
	.st0{fill:#00A0FF;}
</style>
<title>homepage_click</title>
<desc>Created with Sketch.</desc>
<g>
	<g>
		<path class="st0" d="M45,21.5l-5-17H9l-4,17H1v18h7v6h3v-6h28v6h3v-6h7v-18H45z M9.7,32.7c-1.1,0-1.9-0.8-2-1.9c0-1.2,0.8-2,2-2
			c1.1,0,2,0.8,2,2C11.6,31.9,10.8,32.7,9.7,32.7z M33,32.5H18v-3h15V32.5z M40.3,32.7c-1.1,0-1.9-0.9-1.9-2c0-1.2,0.9-2,2.1-1.9
			c1.1,0,1.9,0.9,1.9,2C42.4,31.9,41.5,32.7,40.3,32.7z"/>
	</g>
</g>
</svg>
