<?xml version="1.0" encoding="utf-8"?>
<!-- Generator: Adobe Illustrator 21.0.0, SVG Export Plug-In . SVG Version: 6.00 Build 0)  -->
<svg version="1.1" id="图层_1" xmlns="http://www.w3.org/2000/svg" xmlns:xlink="http://www.w3.org/1999/xlink" x="0px" y="0px"
	 viewBox="0 0 50 50" style="enable-background:new 0 0 50 50;" xml:space="preserve">
<style type="text/css">
	.st0{fill:#C7C8CA;}
</style>
<g>
	<g>
		<path class="st0" d="M45,21.5l-5-17H9l-4,17H1v18h7v6h3v-6h28v6h3v-6h7v-18H45z M11,7.5h27l4,14H8L11,7.5z M46,36.5H4v-12h42V36.5
			z M33,29.5H18v3h15V29.5z M9.7,32.7c1.1,0,2-0.8,2-2c0-1.1-0.8-2-2-2c-1.2,0-2,0.8-2,2C7.7,31.9,8.6,32.7,9.7,32.7z M40.3,32.7
			c1.2,0,2-0.8,2.1-1.9c0-1.1-0.8-2-1.9-2c-1.2,0-2,0.8-2.1,1.9C38.4,31.8,39.3,32.7,40.3,32.7z"/>
	</g>
</g>
</svg>
